# xmcd
#
# Track frame offsets: 
#        165
#        12412
#        28505
#        37320
#        49980
#        63572
#        77250
#        86972
#        95012
#
# Disc length: 1504 seconds
#
# Revision: 0
# Processed by: cddbd v1.5.2PL0 Copyright (c) Steve Scherf et al.
# Submitted via: ExactAudioCopy v0.99pb5
#
DISCID=7505de09
DTITLE=Del Vikings - 1956 Audition Tapes
DYEAR=1956
DGENRE=Doo Wop
TTITLE0=The White Cliffs of Dover
TTITLE1=Over the Rainbow
TTITLE2=Come Go With Me
TTITLE3=How Can I Find True Love
TTITLE4=Yours
TTITLE5=Heaven and Paradise
TTITLE6=There I Go
TTITLE7=Hey Senorita
TTITLE8=In the Still of the Night
EXTD=Collectoables Records COL-CD-5001
EXTT0=
EXTT1=
EXTT2=
EXTT3=
EXTT4=
EXTT5=
EXTT6=
EXTT7=
EXTT8=
PLAYORDER=
